<?xml version="1.0" encoding="utf-8"?>
<!-- Generator: Adobe Illustrator 18.0.0, SVG Export Plug-In . SVG Version: 6.00 Build 0)  -->
<!DOCTYPE svg PUBLIC "-//W3C//DTD SVG 1.1//EN" "http://www.w3.org/Graphics/SVG/1.1/DTD/svg11.dtd">
<svg version="1.1" id="Layer_1" xmlns="http://www.w3.org/2000/svg" xmlns:xlink="http://www.w3.org/1999/xlink" x="0px" y="0px"
	 viewBox="251.1 -1.8 648 649.8" enable-background="new 251.1 -1.8 648 649.8" xml:space="preserve">
<g>
	<path fill="#424549" d="M837-1.8H315c-35.1,0-63.9,29.7-63.9,64.8v522c0,35.1,29.7,61.2,63.9,61.2h388.8l0,0
		c-20.7,0-77.4,0-108.9,0l0,0c-35.1,0-25.2,0,0,0c4.5,0,8.1,1.8,8.1-2.7c0-81,0-162,0-242.1c0-4.5-3.6-7.2-8.1-7.2
		c-25.2,0-51.3,0-76.5,0c-0.9,0-5.4,0-5.4,0c0-27,0-63,0-99c0,0,4.5,0,5.4,0c26.1,0,51.3,1.8,77.4,1.8c2.7,0,3.6,0,3.6-2.7
		c0-26.1-0.9-51.3,0-77.4c0.9-22.5,5.4-44.1,17.1-63.9c15.3-27,39.6-44.1,70.2-51.3c12.6-3.6,25.2-4.5,37.8-4.5
		c14.4,0,28.8,0,42.3,0.9c10.8,0,21.6,1.8,32.4,2.7c2.7,0,2.7,1.8,2.7,3.6c0,27,0,54,0,81.9c0,0.9,0,0.9,0,0.9c-0.9,0-2.7,0-3.6,0
		c-16.2,0-31.5,0.9-47.7,0.9c-7.2,0-15.3,1.8-22.5,3.6c-14.4,3.6-23.4,14.4-24.3,29.7c-0.9,7.2-0.9,14.4-0.9,21.6
		c0,17.1,0,35.1,0,52.2c0,2.7,0.9,1.8,3.6,1.8c29.7,0,59.4-1.8,88.2-1.8c0.9,0,2.7,0,4.5,0c-4.5,36-8.1,72-12.6,99
		c-1.8,0-2.7,0-4.5,0c-25.2,0-51.3,1.8-76.5,0.9c-2.7,0-3.6,1.8-3.6,4.5c0,81,0,162,0,243c0,2.7,0.9,3.6,3.6,3.6c9,0,10.8-0.9,0-0.9
		H837c35.1,0,62.1-27,62.1-61.2V63C899.1,27.9,872.1-1.8,837-1.8z"/>
	<path d="M702.9,648L702.9,648C713.7,648,711.9,648,702.9,648z"/>
	<path d="M594,646.2L594,646.2C568.8,646.2,558,646.2,594,646.2z"/>
</g>
</svg>
