<?xml version="1.0" encoding="utf-8"?>
<!-- Generator: Adobe Illustrator 18.0.0, SVG Export Plug-In . SVG Version: 6.00 Build 0)  -->
<!DOCTYPE svg PUBLIC "-//W3C//DTD SVG 1.1//EN" "http://www.w3.org/Graphics/SVG/1.1/DTD/svg11.dtd">
<svg version="1.1" id="Layer_1" xmlns="http://www.w3.org/2000/svg" xmlns:xlink="http://www.w3.org/1999/xlink" x="0px" y="0px"
	 viewBox="252 0 648 648" enable-background="new 252 0 648 648" xml:space="preserve">
<g>
	<path fill="#424549" d="M252,63v522c0,35.1,27.9,63,63,63h522c35.1,0,63-27.9,63-63V63c0-35.1-27.9-63-63-63H315
		C279.9,0,252,27.9,252,63z M747,228.6c0,3.6,0,8.1,0,11.7c0,116.1-88.2,249.3-250.2,249.3c-50.4,0-96.3-14.4-135.9-39.6
		c6.3,0.9,14.4,0.9,20.7,0.9c40.5,0,79.2-14.4,108.9-37.8c-37.8-0.9-71.1-26.1-81.9-60.3c5.4,0.9,10.8,0.9,17.1,0.9
		c8.1,0,15.3-0.9,22.5-2.7c-40.5-8.1-72-43.2-72-86.4v-0.9c18,6.3,26.1,10.8,40.5,10.8c-23.4-16.2-38.7-42.3-38.7-73.8
		c0-16.2,4.5-31.5,12.6-45c43.2,52.2,108,88.2,181.8,91.8c-0.9-6.3-2.7-13.5-2.7-19.8c0-48.6,39.6-88.2,88.2-88.2
		c25.2,0,48.6,10.8,64.8,27.9c19.8-3.6,39.6-11.7,54.9-20.7c-6.3,20.7-20.7,37.8-37.8,48.6c18-2.7,34.2-6.3,50.4-14.4
		C778.5,200.7,765,216.9,747,228.6z"/>
</g>
</svg>
