<?xml version="1.0" encoding="utf-8"?>
<!-- Generator: Adobe Illustrator 18.0.0, SVG Export Plug-In . SVG Version: 6.00 Build 0)  -->
<!DOCTYPE svg PUBLIC "-//W3C//DTD SVG 1.1//EN" "http://www.w3.org/Graphics/SVG/1.1/DTD/svg11.dtd">
<svg version="1.1" id="Layer_1" xmlns="http://www.w3.org/2000/svg" xmlns:xlink="http://www.w3.org/1999/xlink" x="0px" y="0px"
	 viewBox="0 310 612 172" enable-background="new 0 310 612 172" xml:space="preserve">
<g>
	<g>
		<g>
			<g>
				<path fill="#FFC32E" d="M137.9,434.9c-4.7,0-9.6-2.4-12.6-6.5l-52.8-72v65.9c0,6.7-5.7,12.4-12.7,12.4
					c-6.7,0-12.4-5.7-12.4-12.4v-92c0-8.4,7.1-16.1,16.5-16.1c5.3,0,10.6,2.5,13.9,6.9l50.4,68.7v-63.2c0-6.7,5.7-12.4,12.8-12.4
					c6.7,0,12.4,5.7,12.4,12.4v93C153.6,427.7,146.9,434.9,137.9,434.9z"/>
			</g>
			<g>
				<path fill="#FFC32E" d="M359.9,436.1c-36.1,0-53.5-20.2-53.5-49.4v-59.8c0-6.9,5.7-12.6,12.9-12.6c6.9,0,12.6,5.7,12.6,12.6
					v58.8c0,16.5,9.6,27.9,27.9,27.9c18.2,0,27.7-11.4,27.7-27.9v-58.8c0-6.9,5.7-12.6,13.1-12.6c6.9,0,12.6,5.7,12.6,12.6v59.6
					C413.5,415.9,396,436.1,359.9,436.1z"/>
			</g>
			<g>
				<path fill="#FFC32E" d="M523.3,436.1c-17.3,0-38.6-5.7-45.1-15.5c-1.2-1.8-2-3.9-2-6.1c0-6.7,5.9-11.8,12-11.8
					c2.4,0,4.7,0.6,6.7,2c8,5.5,18,9.2,29.6,9.2c13.9,0,20.6-6.5,20.6-13.1c0-21-68.3-6.7-68.3-51.2c0-19.8,17.1-36.1,44.9-36.1
					c13.5,0,34.1,4.5,40.8,13.1c1.4,1.8,2.2,3.9,2.2,6.1c0,6.7-6.7,11.4-12.6,11.4c-2.2,0-4.3-0.6-6.5-1.8
					c-8.2-4.7-17.5-6.7-26.1-6.7c-10.8,0-16.9,4.7-16.9,12c0,18.8,68.1,6.3,68.1,50.4C570.8,419.6,555.3,436.1,523.3,436.1z"/>
			</g>
		</g>
		<g>
			<path fill="#FFC32E" d="M295,458.9c-3.3,0-6.5-1.4-8.8-4.1l-30.6-35.1c-2-2.4-3.1-5.5-2.9-8.6c0.2-3.1,1.8-6.1,4.1-8
				c8.8-7.5,13.7-18.4,13.7-30c0-21.8-17.7-39.4-39.4-39.4s-39.4,17.7-39.4,39.4s17.7,39.4,39.4,39.4c6.5,0,11.8,5.3,11.8,11.8
				c0,6.5-5.3,11.8-11.8,11.8c-34.7,0-63-28.2-63-63s28.2-63,63-63s63,28.2,63,63c0,14.3-4.9,28.2-13.7,39.2l23.7,27.1
				c4.3,4.9,3.7,12.4-1.2,16.5C300.5,457.9,297.8,458.9,295,458.9z"/>
		</g>
		<g>
			<circle fill="#FFC32E" cx="314.2" cy="470.6" r="11.4"/>
		</g>
	</g>
	<g>
		<path fill="#FFC32E" d="M12.8,434.7C6.3,434.7,1,429.4,1,423v-63c0-6.5,5.3-11.8,11.8-11.8s11.8,5.3,11.8,11.8v63
			C24.5,429.4,19.2,434.7,12.8,434.7z"/>
	</g>
	<g>
		<circle fill="#FFC32E" cx="12.8" cy="326.9" r="12.8"/>
	</g>
	<g>
		<path fill="#FFC32E" d="M447.4,434.7c-6.5,0-11.8-5.3-11.8-11.8v-63c0-6.5,5.3-11.8,11.8-11.8s11.8,5.3,11.8,11.8v63
			C459.2,429.4,453.9,434.7,447.4,434.7z"/>
	</g>
	<g>
		<circle fill="#FFC32E" cx="447.4" cy="326.9" r="12.8"/>
	</g>
	<g>
		<path fill="#FFC32E" d="M599.2,434.7c-6.5,0-11.8-5.3-11.8-11.8v-63c0-6.5,5.3-11.8,11.8-11.8c6.5,0,11.8,5.3,11.8,11.8v63
			C611,429.4,605.7,434.7,599.2,434.7z"/>
	</g>
	<g>
		<circle fill="#FFC32E" cx="599.2" cy="326.9" r="12.8"/>
	</g>
</g>
</svg>
