<?xml version="1.0" encoding="utf-8"?>
<!-- Generator: Adobe Illustrator 18.0.0, SVG Export Plug-In . SVG Version: 6.00 Build 0)  -->
<!DOCTYPE svg PUBLIC "-//W3C//DTD SVG 1.1//EN" "http://www.w3.org/Graphics/SVG/1.1/DTD/svg11.dtd">
<svg version="1.1" id="Layer_1" xmlns="http://www.w3.org/2000/svg" xmlns:xlink="http://www.w3.org/1999/xlink" x="0px" y="0px"
	 viewBox="0 0 312 87.7" enable-background="new 0 0 312 87.7" xml:space="preserve">
<g>
	<g>
		<g>
			<g>
				<path fill="#FFC32E" d="M70.3,63.7c-2.4,0-4.9-1.2-6.4-3.3L37,23.7v33.6c0,3.4-2.9,6.3-6.5,6.3c-3.4,0-6.3-2.9-6.3-6.3V10.4
					c0-4.3,3.6-8.2,8.4-8.2c2.7,0,5.4,1.3,7.1,3.5l25.7,35V8.5c0-3.4,2.9-6.3,6.5-6.3c3.4,0,6.3,2.9,6.3,6.3v47.4
					C78.3,60,74.9,63.7,70.3,63.7z"/>
			</g>
			<g>
				<path fill="#FFC32E" d="M183.5,64.3c-18.4,0-27.3-10.3-27.3-25.2V8.6c0-3.5,2.9-6.4,6.6-6.4c3.5,0,6.4,2.9,6.4,6.4v30
					c0,8.4,4.9,14.2,14.2,14.2c9.3,0,14.1-5.8,14.1-14.2v-30c0-3.5,2.9-6.4,6.7-6.4c3.5,0,6.4,2.9,6.4,6.4V39
					C210.8,54,201.9,64.3,183.5,64.3z"/>
			</g>
			<g>
				<path fill="#FFC32E" d="M266.8,64.3c-8.8,0-19.7-2.9-23-7.9c-0.6-0.9-1-2-1-3.1c0-3.4,3-6,6.1-6c1.2,0,2.4,0.3,3.4,1
					c4.1,2.8,9.2,4.7,15.1,4.7c7.1,0,10.5-3.3,10.5-6.7c0-10.7-34.8-3.4-34.8-26.1c0-10.1,8.7-18.4,22.9-18.4
					c6.9,0,17.4,2.3,20.8,6.7c0.7,0.9,1.1,2,1.1,3.1c0,3.4-3.4,5.8-6.4,5.8c-1.1,0-2.2-0.3-3.3-0.9c-4.2-2.4-8.9-3.4-13.3-3.4
					c-5.5,0-8.6,2.4-8.6,6.1c0,9.6,34.7,3.2,34.7,25.7C291,55.9,283.1,64.3,266.8,64.3z"/>
			</g>
		</g>
		<g>
			<path fill="#FFC32E" d="M150.4,75.9c-1.7,0-3.3-0.7-4.5-2.1l-15.6-17.9c-1-1.2-1.6-2.8-1.5-4.4c0.1-1.6,0.9-3.1,2.1-4.1
				c4.5-3.8,7-9.4,7-15.3c0-11.1-9-20.1-20.1-20.1s-20.1,9-20.1,20.1s9,20.1,20.1,20.1c3.3,0,6,2.7,6,6s-2.7,6-6,6
				c-17.7,0-32.1-14.4-32.1-32.1S100.1,0,117.8,0s32.1,14.4,32.1,32.1c0,7.3-2.5,14.4-7,20l12.1,13.8c2.2,2.5,1.9,6.3-0.6,8.4
				C153.2,75.4,151.8,75.9,150.4,75.9z"/>
		</g>
		<g>
			<circle fill="#FFC32E" cx="160.2" cy="81.9" r="5.8"/>
		</g>
	</g>
	<g>
		<path fill="#FFC32E" d="M6.5,63.6c-3.3,0-6-2.7-6-6V25.5c0-3.3,2.7-6,6-6s6,2.7,6,6v32.1C12.5,60.9,9.8,63.6,6.5,63.6z"/>
	</g>
	<g>
		<circle fill="#FFC32E" cx="6.5" cy="8.6" r="6.5"/>
	</g>
	<g>
		<path fill="#FFC32E" d="M228.1,63.6c-3.3,0-6-2.7-6-6V25.5c0-3.3,2.7-6,6-6c3.3,0,6,2.7,6,6v32.1
			C234.1,60.9,231.4,63.6,228.1,63.6z"/>
	</g>
	<g>
		<circle fill="#FFC32E" cx="228.1" cy="8.6" r="6.5"/>
	</g>
	<g>
		<path fill="#FFC32E" d="M305.5,63.6c-3.3,0-6-2.7-6-6V25.5c0-3.3,2.7-6,6-6c3.3,0,6,2.7,6,6v32.1
			C311.5,60.9,308.8,63.6,305.5,63.6z"/>
	</g>
	<g>
		<circle fill="#FFC32E" cx="305.5" cy="8.6" r="6.5"/>
	</g>
</g>
</svg>
